<?xml version="1.0" standalone="no"?>
<!DOCTYPE svg PUBLIC "-//W3C//DTD SVG 20010904//EN"
 "http://www.w3.org/TR/2001/REC-SVG-20010904/DTD/svg10.dtd">
<svg version="1.0" xmlns="http://www.w3.org/2000/svg"
 width="512.000000pt" height="512.000000pt" viewBox="0 0 512.000000 512.000000"
 preserveAspectRatio="xMidYMid meet">
<metadata>
Created by potrace 1.11, written by Peter Selinger 2001-2013
</metadata>
<g transform="translate(0.000000,512.000000) scale(0.100000,-0.100000)"
fill="#000000" stroke="none">
<path d="M1480 3164 c-80 -81 -161 -140 -265 -192 -146 -72 -273 -103 -443
-104 l-107 -1 70 -18 c261 -65 558 35 725 243 40 51 96 138 88 138 -2 0 -33
-30 -68 -66z"/>
<path d="M989 3171 c-48 -48 -35 -121 27 -147 82 -34 159 48 119 126 -29 56
-100 67 -146 21z"/>
<path d="M2650 3131 l-85 -6 45 -14 c25 -7 56 -17 70 -20 48 -14 50 -29 50
-443 0 -214 -4 -398 -9 -411 -8 -19 -19 -26 -55 -31 -25 -4 -46 -11 -46 -17 0
-5 76 -9 185 -9 182 0 240 11 128 25 -32 3 -68 13 -81 21 l-22 15 2 426 3 427
29 7 c16 5 65 5 109 2 107 -8 158 -41 205 -133 30 -58 34 -71 29 -125 -5 -71
-33 -132 -77 -169 -39 -33 -69 -41 -147 -41 -35 0 -63 -3 -63 -6 0 -14 60 -32
121 -36 57 -5 74 -2 128 22 107 48 161 131 161 250 0 147 -77 237 -225 264
-59 11 -299 12 -455 2z"/>
<path d="M527 3086 c-115 -32 -177 -111 -177 -224 0 -113 34 -155 210 -257 63
-37 130 -78 148 -91 107 -81 84 -246 -40 -291 -64 -23 -201 -12 -290 22 -16 6
-18 1 -18 -43 0 -51 0 -51 38 -59 20 -4 95 -8 167 -8 117 0 134 2 175 24 106
55 146 130 138 253 -9 115 -37 144 -299 303 -95 58 -119 86 -126 146 -4 35 0
51 19 78 39 58 81 76 173 75 44 -1 101 -9 128 -17 l47 -15 0 48 c0 44 -2 48
-27 54 -67 14 -219 16 -266 2z"/>
<path d="M1647 2796 c-52 -19 -81 -48 -109 -109 l-23 -52 -3 78 -3 77 -39 0
-40 0 0 -320 0 -320 40 0 40 0 0 143 c0 163 11 240 46 314 47 99 135 143 193
96 34 -28 41 -81 41 -325 l0 -228 41 0 40 0 -3 273 c-3 251 -5 275 -23 306
-11 19 -31 42 -45 52 -34 26 -106 32 -153 15z"/>
<path d="M2183 2799 c-45 -13 -107 -88 -129 -156 -25 -77 -26 -286 -1 -351 25
-65 55 -102 101 -123 94 -43 199 -7 239 81 10 21 12 13 15 -62 4 -134 -21
-198 -90 -234 -41 -21 -163 -21 -213 0 -21 9 -39 16 -41 16 -2 0 -4 -20 -4
-44 l0 -44 53 -7 c79 -11 178 -8 227 6 61 18 115 75 134 140 13 43 16 116 16
411 l0 358 -40 0 -40 0 0 -52 0 -53 -19 30 c-50 80 -121 109 -208 84z m142
-85 c40 -26 76 -112 82 -197 13 -167 -55 -297 -154 -297 -80 0 -126 93 -125
256 1 105 12 156 45 205 40 60 93 72 152 33z"/>
<path d="M3530 2781 c-87 -27 -166 -107 -190 -192 -7 -25 -6 -29 10 -29 48 0
69 18 85 73 21 74 71 117 135 117 71 0 100 -44 100 -149 l0 -71 -78 -39 c-194
-98 -289 -238 -207 -308 48 -42 143 -21 243 54 l32 24 14 -33 c19 -45 46 -68
90 -75 32 -5 40 -2 71 31 41 44 51 84 11 47 -16 -15 -33 -21 -52 -19 l-29 3
-5 230 c-3 134 -10 240 -17 255 -31 69 -128 106 -213 81z m140 -380 l0 -99
-37 -30 c-93 -73 -138 -78 -166 -20 -16 32 -17 43 -7 73 20 61 146 173 198
175 9 0 12 -26 12 -99z"/>
<path d="M4047 2776 c-80 -22 -127 -83 -127 -164 0 -66 32 -101 147 -157 141
-70 173 -103 173 -183 0 -55 -52 -102 -111 -102 -75 0 -152 59 -180 138 -6 18
-14 32 -19 32 -10 0 0 -142 12 -157 15 -19 110 -36 175 -31 107 7 175 62 189
153 12 86 -55 171 -167 210 -72 26 -118 57 -135 93 -47 100 59 199 152 142 38
-24 94 -93 94 -117 0 -7 5 -13 10 -13 7 0 10 25 8 67 l-3 68 -37 12 c-61 20
-130 23 -181 9z"/>
<path d="M4507 2776 c-87 -24 -132 -86 -125 -173 6 -71 30 -95 148 -150 132
-62 170 -102 170 -179 0 -54 -53 -104 -109 -104 -77 0 -154 57 -182 135 -19
52 -33 43 -25 -17 3 -29 6 -65 6 -80 0 -24 6 -29 52 -43 78 -23 163 -19 224 9
109 51 134 186 49 269 -37 36 -42 39 -157 90 -57 26 -80 43 -92 65 -35 67 -6
142 62 163 33 10 45 9 77 -7 36 -17 88 -76 100 -115 14 -42 26 -16 23 48 l-3
66 -38 13 c-60 21 -128 25 -180 10z"/>
<path d="M1095 2761 c-11 -5 -29 -19 -40 -31 -28 -31 -25 -134 9 -310 14 -74
30 -186 36 -248 12 -130 15 -441 4 -522 -10 -85 11 -51 40 65 89 355 131 753
96 918 -22 107 -77 155 -145 128z"/>
</g>
</svg>
